<svg width="85" height="73" viewBox="0 0 85 73" fill="none" xmlns="http://www.w3.org/2000/svg">
<g id="Component 5">
<g id="Rectangle 23" filter="url(#filter0_d_61_1387)">
<rect x="26.9458" y="19" width="34.0541" height="26.7568" rx="5.67568" fill="#0A40C1"/>
</g>
<g id="Rectangle 24" filter="url(#filter1_f_61_1387)">
<rect x="29.3782" y="19.8108" width="28.7838" height="22.2973" rx="2.83784" fill="#018FF6" fill-opacity="0.43"/>
<rect x="29.1755" y="19.6081" width="29.1892" height="22.7027" rx="3.04054" stroke="white" stroke-width="0.405405"/>
</g>
<g id="Rectangle 26" filter="url(#filter2_f_61_1387)">
<path d="M26.9458 36.2297C26.9458 30.9681 31.2112 26.7027 36.4728 26.7027H49.0404C54.302 26.7027 58.5674 30.9681 58.5674 36.2297V36.2297C58.5674 41.4914 54.302 45.7568 49.0404 45.7568H36.4728C31.2112 45.7568 26.9458 41.4914 26.9458 36.2297V36.2297Z" fill="#F9F9F9" fill-opacity="0.51"/>
</g>
<g id="info_i">
<mask id="mask0_61_1387" style="mask-type:alpha" maskUnits="userSpaceOnUse" x="37" y="23" width="15" height="16">
<rect id="Bounding box" x="37" y="23.8" width="14.4" height="14.4" fill="#D9D9D9"/>
</mask>
<g mask="url(#mask0_61_1387)">
<path id="info_i_2" d="M44.2 28C43.87 28 43.5875 27.8825 43.3525 27.6475C43.1175 27.4125 43 27.13 43 26.8C43 26.47 43.1175 26.1875 43.3525 25.9525C43.5875 25.7175 43.87 25.6 44.2 25.6C44.53 25.6 44.8125 25.7175 45.0475 25.9525C45.2825 26.1875 45.4 26.47 45.4 26.8C45.4 27.13 45.2825 27.4125 45.0475 27.6475C44.8125 27.8825 44.53 28 44.2 28ZM43.3 36.4V29.2H45.1V36.4H43.3Z" fill="white"/>
</g>
</g>
</g>
<defs>
<filter id="filter0_d_61_1387" x="25.3242" y="19" width="37.2972" height="30" filterUnits="userSpaceOnUse" color-interpolation-filters="sRGB">
<feFlood flood-opacity="0" result="BackgroundImageFix"/>
<feColorMatrix in="SourceAlpha" type="matrix" values="0 0 0 0 0 0 0 0 0 0 0 0 0 0 0 0 0 0 127 0" result="hardAlpha"/>
<feOffset dy="1.62162"/>
<feGaussianBlur stdDeviation="0.810811"/>
<feComposite in2="hardAlpha" operator="out"/>
<feColorMatrix type="matrix" values="0 0 0 0 0 0 0 0 0 0 0 0 0 0 0 0 0 0 0.25 0"/>
<feBlend mode="normal" in2="BackgroundImageFix" result="effect1_dropShadow_61_1387"/>
<feBlend mode="normal" in="SourceGraphic" in2="effect1_dropShadow_61_1387" result="shape"/>
</filter>
<filter id="filter1_f_61_1387" x="28.5673" y="19" width="30.4055" height="23.9189" filterUnits="userSpaceOnUse" color-interpolation-filters="sRGB">
<feFlood flood-opacity="0" result="BackgroundImageFix"/>
<feBlend mode="normal" in="SourceGraphic" in2="BackgroundImageFix" result="shape"/>
<feGaussianBlur stdDeviation="0.202703" result="effect1_foregroundBlur_61_1387"/>
</filter>
<filter id="filter2_f_61_1387" x="0.594446" y="0.351343" width="84.3243" height="71.7568" filterUnits="userSpaceOnUse" color-interpolation-filters="sRGB">
<feFlood flood-opacity="0" result="BackgroundImageFix"/>
<feBlend mode="normal" in="SourceGraphic" in2="BackgroundImageFix" result="shape"/>
<feGaussianBlur stdDeviation="13.1757" result="effect1_foregroundBlur_61_1387"/>
</filter>
</defs>
</svg>
