<svg width="24" height="24" viewBox="0 0 24 24" fill="none" xmlns="http://www.w3.org/2000/svg">
<g id="Component 8">
<mask id="mask0_61_2218" style="mask-type:alpha" maskUnits="userSpaceOnUse" x="0" y="0" width="24" height="24">
<rect id="Bounding box" width="24" height="24" fill="#D9D9D9"/>
</mask>
<g mask="url(#mask0_61_2218)">
<g id="bigtop_updates" filter="url(#filter0_d_61_2218)">
<path d="M4.95 17.05C4 16.1 3.27083 15.0208 2.7625 13.8125C2.25417 12.6042 2 11.3333 2 10C2 8.66666 2.25417 7.39583 2.7625 6.1875C3.27083 4.97916 4 3.9 4.95 2.95L6.15 4.15C5.36667 4.93333 4.7625 5.82916 4.3375 6.8375C3.9125 7.84583 3.7 8.9 3.7 10C3.7 11.1 3.9125 12.1542 4.3375 13.1625C4.7625 14.1708 5.36667 15.0667 6.15 15.85L4.95 17.05ZM7.25 14.75C6.61667 14.1167 6.13333 13.3917 5.8 12.575C5.46667 11.7583 5.3 10.9 5.3 10C5.3 9.1 5.46667 8.24166 5.8 7.425C6.13333 6.60833 6.61667 5.88333 7.25 5.25L8.45 6.45C7.96667 6.93333 7.60417 7.47916 7.3625 8.0875C7.12083 8.69583 7 9.33333 7 10C7 10.6667 7.12083 11.3042 7.3625 11.9125C7.60417 12.5208 7.96667 13.0667 8.45 13.55L7.25 14.75ZM11 21V12.3C10.55 12.1 10.1875 11.7917 9.9125 11.375C9.6375 10.9583 9.5 10.5 9.5 10C9.5 9.3 9.74167 8.70833 10.225 8.225C10.7083 7.74166 11.3 7.5 12 7.5C12.7 7.5 13.2917 7.74166 13.775 8.225C14.2583 8.70833 14.5 9.3 14.5 10C14.5 10.5 14.3625 10.9583 14.0875 11.375C13.8125 11.7917 13.45 12.1 13 12.3V21H11ZM16.75 14.75L15.55 13.55C16.0333 13.0667 16.3958 12.5208 16.6375 11.9125C16.8792 11.3042 17 10.6667 17 10C17 9.33333 16.8792 8.69583 16.6375 8.0875C16.3958 7.47916 16.0333 6.93333 15.55 6.45L16.75 5.25C17.3833 5.88333 17.8667 6.60833 18.2 7.425C18.5333 8.24166 18.7 9.1 18.7 10C18.7 10.9 18.5333 11.7583 18.2 12.575C17.8667 13.3917 17.3833 14.1167 16.75 14.75ZM19.05 17.05L17.85 15.85C18.6333 15.0667 19.2375 14.1708 19.6625 13.1625C20.0875 12.1542 20.3 11.1 20.3 10C20.3 8.9 20.0875 7.84583 19.6625 6.8375C19.2375 5.82916 18.6333 4.93333 17.85 4.15L19.05 2.95C20 3.9 20.7292 4.97916 21.2375 6.1875C21.7458 7.39583 22 8.66666 22 10C22 11.3333 21.7458 12.6042 21.2375 13.8125C20.7292 15.0208 20 16.1 19.05 17.05Z" fill="#03E650"/>
</g>
</g>
</g>
<defs>
<filter id="filter0_d_61_2218" x="-1.9" y="2.95" width="27.8" height="25.95" filterUnits="userSpaceOnUse" color-interpolation-filters="sRGB">
<feFlood flood-opacity="0" result="BackgroundImageFix"/>
<feColorMatrix in="SourceAlpha" type="matrix" values="0 0 0 0 0 0 0 0 0 0 0 0 0 0 0 0 0 0 127 0" result="hardAlpha"/>
<feOffset dy="4"/>
<feGaussianBlur stdDeviation="1.95"/>
<feComposite in2="hardAlpha" operator="out"/>
<feColorMatrix type="matrix" values="0 0 0 0 0.900833 0 0 0 0 0.900833 0 0 0 0 0.900833 0 0 0 0.43 0"/>
<feBlend mode="normal" in2="BackgroundImageFix" result="effect1_dropShadow_61_2218"/>
<feBlend mode="normal" in="SourceGraphic" in2="effect1_dropShadow_61_2218" result="shape"/>
</filter>
</defs>
</svg>
