<?xml version="1.0" encoding="iso-8859-1"?>
<!-- Generator: Adobe Illustrator 19.0.0, SVG Export Plug-In . SVG Version: 6.00 Build 0)  -->
<svg version="1.1" id="Layer_1" xmlns="http://www.w3.org/2000/svg" xmlns:xlink="http://www.w3.org/1999/xlink" x="0px" y="0px"
	 viewBox="0 0 512 512" style="enable-background:new 0 0 512 512;" xml:space="preserve">
<path style="fill:#FFE669;" d="M510.92,46.484c-4.327-22.74-22.664-41.077-45.404-45.404c-12.695-2.415-24.811-0.663-35.255,4.117
	c-17.669,8.088-37.467,10.604-56.043,4.901c-87.717-26.931-197.918,3.02-279.509,84.612S-16.833,286.5,10.098,374.218
	c5.703,18.577,3.186,38.376-4.902,56.046c-4.779,10.441-6.532,22.554-4.117,35.247c4.325,22.741,22.661,41.08,45.401,45.408
	c12.697,2.417,24.815,0.664,35.26-4.117c17.668-8.089,37.466-10.603,56.041-4.9c87.717,26.931,197.918-3.02,279.509-84.612
	S528.834,225.5,501.902,137.782c-5.703-18.575-3.187-38.375,4.901-56.043C511.584,71.294,513.336,59.178,510.92,46.484z"/>
<g>
	<path style="fill:#FFD255;" d="M259.059,5.35c-57.745,11.023-116.056,41.065-164.35,89.359
		C13.118,176.301-16.833,286.5,10.098,374.218c5.703,18.577,3.186,38.376-4.902,56.046c-4.779,10.441-6.532,22.555-4.117,35.247
		c4.325,22.741,22.661,41.081,45.401,45.408c12.698,2.417,24.815,0.664,35.26-4.117c17.668-8.088,37.466-10.603,56.041-4.9
		c7.814,2.399,15.858,4.185,23.992,5.685C106.626,388.577,74.733,143.447,259.059,5.35z"/>
	<circle style="fill:#FFD255;" cx="298.667" cy="146.963" r="14.222"/>
	<circle style="fill:#FFD255;" cx="237.037" cy="407.703" r="14.222"/>
	<circle style="fill:#FFD255;" cx="360.296" cy="199.111" r="9.481"/>
	<circle style="fill:#FFD255;" cx="293.926" cy="379.259" r="9.481"/>
	<circle style="fill:#FFD255;" cx="350.815" cy="94.814" r="9.481"/>
</g>
<g>
</g>
<g>
</g>
<g>
</g>
<g>
</g>
<g>
</g>
<g>
</g>
<g>
</g>
<g>
</g>
<g>
</g>
<g>
</g>
<g>
</g>
<g>
</g>
<g>
</g>
<g>
</g>
<g>
</g>
</svg>
